<svg width="74" height="44" viewBox="0 0 74 44" fill="none" xmlns="http://www.w3.org/2000/svg">
<path d="M6.45459 2.56216C8.60119 2.56216 10.2479 2.97384 11.3947 3.79719C12.5562 4.60584 13.137 5.81881 13.137 7.43611C13.137 8.31827 12.9752 9.07546 12.6518 9.70768C12.343 10.3252 11.8872 10.8324 11.2844 11.2294C10.6963 11.6117 9.97589 11.891 9.12314 12.0675C8.27038 12.2439 7.30735 12.3321 6.23405 12.3321H4.53589V18H2.39665V2.93708C2.99946 2.79005 3.66843 2.69449 4.40357 2.65038C5.15341 2.59157 5.83708 2.56216 6.45459 2.56216ZM6.63103 4.43676C5.71946 4.43676 5.02108 4.45881 4.53589 4.50292V10.5016H6.14584C6.88097 10.5016 7.5426 10.4575 8.1307 10.3693C8.71881 10.2664 9.21135 10.1046 9.60832 9.88411C10.02 9.64886 10.3361 9.33276 10.5566 8.93578C10.7772 8.53881 10.8875 8.03157 10.8875 7.41405C10.8875 6.82595 10.7698 6.34076 10.5346 5.95849C10.3141 5.57622 10.0053 5.27481 9.60832 5.05427C9.22605 4.81903 8.77762 4.6573 8.26303 4.56908C7.74843 4.48086 7.20443 4.43676 6.63103 4.43676ZM14.3317 12.288C14.3317 11.2735 14.4787 10.3914 14.7728 9.64151C15.0668 8.87697 15.4564 8.24476 15.9416 7.74486C16.4268 7.24497 16.9855 6.87005 17.6177 6.62011C18.25 6.37016 18.8969 6.24519 19.5585 6.24519C21.1023 6.24519 22.2858 6.73038 23.1092 7.70076C23.9325 8.65643 24.3442 10.1194 24.3442 12.0895C24.3442 12.1777 24.3442 12.2954 24.3442 12.4424C24.3442 12.5747 24.3369 12.6997 24.3222 12.8173H16.4709C16.5591 14.0082 16.9047 14.9124 17.5075 15.5299C18.1103 16.1475 19.0513 16.4562 20.3304 16.4562C21.0508 16.4562 21.6536 16.3974 22.1388 16.2798C22.6387 16.1475 23.0136 16.0225 23.2636 15.9049L23.5503 17.6251C23.3003 17.7574 22.8593 17.8971 22.227 18.0441C21.6095 18.1911 20.9038 18.2646 20.1098 18.2646C19.1101 18.2646 18.2426 18.1176 17.5075 17.8236C16.787 17.5148 16.1916 17.0958 15.7211 16.5665C15.2506 16.0372 14.8977 15.4123 14.6625 14.6919C14.442 13.9568 14.3317 13.1555 14.3317 12.288ZM22.205 11.1632C22.2197 10.237 21.9844 9.47978 21.4993 8.89168C21.0288 8.28886 20.3745 7.98746 19.5364 7.98746C19.066 7.98746 18.6469 8.08303 18.2794 8.27416C17.9265 8.45059 17.6251 8.68584 17.3751 8.97989C17.1252 9.27395 16.9267 9.61211 16.7797 9.99438C16.6474 10.3766 16.5591 10.7663 16.515 11.1632H22.205ZM31.5249 6.2893C31.7013 6.2893 31.8998 6.304 32.1203 6.3334C32.3556 6.34811 32.5835 6.37751 32.804 6.42162C33.0246 6.45103 33.223 6.48778 33.3995 6.53189C33.5906 6.5613 33.7303 6.5907 33.8185 6.62011L33.4656 8.40649C33.3039 8.34768 33.0319 8.28151 32.6496 8.208C32.2821 8.11978 31.8042 8.07568 31.2161 8.07568C30.8339 8.07568 30.4516 8.11978 30.0693 8.208C29.7018 8.28151 29.4592 8.33297 29.3415 8.36238V18H27.2905V7.01708C27.7757 6.84065 28.3785 6.67892 29.0989 6.53189C29.8194 6.37016 30.628 6.2893 31.5249 6.2893ZM40.2747 0.886053C40.8775 0.886053 41.3921 0.930161 41.8184 1.01838C42.2595 1.10659 42.5683 1.18746 42.7447 1.26097L42.3698 3.0253C42.1934 2.93708 41.9434 2.85621 41.62 2.7827C41.2965 2.69449 40.8995 2.65038 40.429 2.65038C39.4734 2.65038 38.8044 2.91503 38.4221 3.44432C38.0399 3.95892 37.8487 4.6573 37.8487 5.53946V6.53189H42.2595V8.25211H37.8487V18H35.7977V5.49535C35.7977 4.02508 36.1579 2.89297 36.8783 2.09903C37.5988 1.29038 38.7309 0.886053 40.2747 0.886053ZM43.6653 12.288C43.6653 11.2735 43.8123 10.3914 44.1064 9.64151C44.4004 8.87697 44.7901 8.24476 45.2752 7.74486C45.7604 7.24497 46.3191 6.87005 46.9514 6.62011C47.5836 6.37016 48.2305 6.24519 48.8921 6.24519C50.4359 6.24519 51.6195 6.73038 52.4428 7.70076C53.2662 8.65643 53.6778 10.1194 53.6778 12.0895C53.6778 12.1777 53.6778 12.2954 53.6778 12.4424C53.6778 12.5747 53.6705 12.6997 53.6558 12.8173H45.8045C45.8928 14.0082 46.2383 14.9124 46.8411 15.5299C47.4439 16.1475 48.3849 16.4562 49.664 16.4562C50.3844 16.4562 50.9872 16.3974 51.4724 16.2798C51.9723 16.1475 52.3472 16.0225 52.5972 15.9049L52.8839 17.6251C52.6339 17.7574 52.1929 17.8971 51.5607 18.0441C50.9431 18.1911 50.2374 18.2646 49.4435 18.2646C48.4437 18.2646 47.5762 18.1176 46.8411 17.8236C46.1207 17.5148 45.5252 17.0958 45.0547 16.5665C44.5842 16.0372 44.2314 15.4123 43.9961 14.6919C43.7756 13.9568 43.6653 13.1555 43.6653 12.288ZM51.5386 11.1632C51.5533 10.237 51.3181 9.47978 50.8329 8.89168C50.3624 8.28886 49.7081 7.98746 48.8701 7.98746C48.3996 7.98746 47.9805 8.08303 47.613 8.27416C47.2601 8.45059 46.9587 8.68584 46.7088 8.97989C46.4588 9.27395 46.2603 9.61211 46.1133 9.99438C45.981 10.3766 45.8928 10.7663 45.8487 11.1632H51.5386ZM61.6083 18.2646C60.6821 18.2646 59.8661 18.1176 59.1603 17.8236C58.4693 17.5295 57.8812 17.1178 57.396 16.5885C56.9255 16.0592 56.5727 15.4344 56.3374 14.7139C56.1022 13.9788 55.9846 13.1702 55.9846 12.288C55.9846 11.4058 56.1095 10.5972 56.3595 9.86205C56.6241 9.12692 56.9917 8.4947 57.4622 7.96541C57.9327 7.42141 58.5061 7.00238 59.1824 6.70832C59.8734 6.39957 60.638 6.24519 61.476 6.24519C61.9906 6.24519 62.5052 6.2893 63.0198 6.37751C63.5344 6.46573 64.0269 6.6054 64.4974 6.79654L64.0343 8.53881C63.7255 8.39178 63.3653 8.27416 62.9536 8.18595C62.5567 8.09773 62.1303 8.05362 61.6745 8.05362C60.5277 8.05362 59.6455 8.41384 59.028 9.13427C58.4252 9.8547 58.1238 10.9059 58.1238 12.288C58.1238 12.9055 58.19 13.4716 58.3223 13.9862C58.4693 14.5008 58.6899 14.9418 58.9839 15.3094C59.2927 15.677 59.6823 15.9637 60.1528 16.1695C60.6233 16.3606 61.1967 16.4562 61.873 16.4562C62.417 16.4562 62.9095 16.4048 63.3506 16.3018C63.7917 16.1989 64.1372 16.0886 64.3872 15.971L64.6739 17.6912C64.5562 17.7648 64.3872 17.8383 64.1666 17.9118C63.9461 17.9706 63.6961 18.0221 63.4168 18.0662C63.1374 18.125 62.836 18.1691 62.5126 18.1985C62.2038 18.2426 61.9024 18.2646 61.6083 18.2646ZM68.7945 6.53189H73.1392V8.25211H68.7945V13.5451C68.7945 14.1185 68.8386 14.5963 68.9268 14.9786C69.0151 15.3462 69.1474 15.6402 69.3238 15.8608C69.5002 16.0666 69.7208 16.2136 69.9854 16.3018C70.2501 16.3901 70.5588 16.4342 70.9117 16.4342C71.5292 16.4342 72.0218 16.368 72.3893 16.2357C72.7716 16.0886 73.0362 15.9857 73.1833 15.9269L73.5802 17.6251C73.3744 17.728 73.0142 17.853 72.4996 18C71.985 18.1617 71.3969 18.2426 70.7353 18.2426C69.956 18.2426 69.3091 18.147 68.7945 17.9559C68.2946 17.7501 67.8903 17.4486 67.5815 17.0517C67.2728 16.6547 67.0522 16.1695 66.9199 15.5961C66.8023 15.008 66.7435 14.3317 66.7435 13.5671V3.33405L68.7945 2.98119V6.53189ZM12.6077 27.7165V29.5691H7.79989V43H5.66065V29.5691H0.852865V27.7165H12.6077ZM23.6511 37.2659C23.6511 38.1775 23.5187 39.0009 23.2541 39.736C22.9895 40.4711 22.6145 41.1034 22.1293 41.6326C21.6589 42.1619 21.0928 42.5736 20.4312 42.8677C19.7696 43.147 19.0491 43.2867 18.2699 43.2867C17.4906 43.2867 16.7702 43.147 16.1086 42.8677C15.447 42.5736 14.8736 42.1619 14.3884 41.6326C13.9179 41.1034 13.5503 40.4711 13.2857 39.736C13.021 39.0009 12.8887 38.1775 12.8887 37.2659C12.8887 36.3691 13.021 35.5531 13.2857 34.8179C13.5503 34.0681 13.9179 33.4285 14.3884 32.8992C14.8736 32.3699 15.447 31.9656 16.1086 31.6863C16.7702 31.3922 17.4906 31.2452 18.2699 31.2452C19.0491 31.2452 19.7696 31.3922 20.4312 31.6863C21.0928 31.9656 21.6589 32.3699 22.1293 32.8992C22.6145 33.4285 22.9895 34.0681 23.2541 34.8179C23.5187 35.5531 23.6511 36.3691 23.6511 37.2659ZM21.5118 37.2659C21.5118 35.9721 21.2178 34.9503 20.6297 34.2004C20.0563 33.4359 19.2697 33.0536 18.2699 33.0536C17.2701 33.0536 16.4762 33.4359 15.888 34.2004C15.3146 34.9503 15.0279 35.9721 15.0279 37.2659C15.0279 38.5598 15.3146 39.589 15.888 40.3535C16.4762 41.1034 17.2701 41.4783 18.2699 41.4783C19.2697 41.4783 20.0563 41.1034 20.6297 40.3535C21.2178 39.589 21.5118 38.5598 21.5118 37.2659ZM44.3221 35.3472C44.3221 36.6705 44.1163 37.8246 43.7046 38.8097C43.2929 39.7801 42.7122 40.5888 41.9623 41.2357C41.2125 41.8679 40.3156 42.3457 39.2717 42.6692C38.2278 42.9779 37.081 43.1323 35.8313 43.1323C35.2138 43.1323 34.5301 43.1029 33.7803 43.0441C33.0451 43 32.3761 42.9044 31.7733 42.7574V27.9371C32.3761 27.7901 33.0451 27.6945 33.7803 27.6504C34.5301 27.5916 35.2138 27.5622 35.8313 27.5622C37.081 27.5622 38.2278 27.7239 39.2717 28.0474C40.3156 28.3561 41.2125 28.8339 41.9623 29.4809C42.7122 30.1131 43.2929 30.9217 43.7046 31.9068C44.1163 32.8772 44.3221 34.024 44.3221 35.3472ZM36.0077 41.2577C38.0367 41.2577 39.5511 40.7431 40.5509 39.7139C41.5506 38.6701 42.0505 37.2145 42.0505 35.3472C42.0505 33.48 41.5506 32.0318 40.5509 31.0026C39.5511 29.9587 38.0367 29.4368 36.0077 29.4368C35.4049 29.4368 34.9344 29.4441 34.5963 29.4588C34.2728 29.4735 34.0449 29.4882 33.9126 29.5029V41.1916C34.0449 41.2063 34.2728 41.221 34.5963 41.2357C34.9344 41.2504 35.4049 41.2577 36.0077 41.2577ZM57.486 37.2659C57.486 38.1775 57.3536 39.0009 57.089 39.736C56.8243 40.4711 56.4494 41.1034 55.9642 41.6326C55.4937 42.1619 54.9277 42.5736 54.2661 42.8677C53.6044 43.147 52.884 43.2867 52.1048 43.2867C51.3255 43.2867 50.6051 43.147 49.9435 42.8677C49.2818 42.5736 48.7084 42.1619 48.2233 41.6326C47.7528 41.1034 47.3852 40.4711 47.1205 39.736C46.8559 39.0009 46.7236 38.1775 46.7236 37.2659C46.7236 36.3691 46.8559 35.5531 47.1205 34.8179C47.3852 34.0681 47.7528 33.4285 48.2233 32.8992C48.7084 32.3699 49.2818 31.9656 49.9435 31.6863C50.6051 31.3922 51.3255 31.2452 52.1048 31.2452C52.884 31.2452 53.6044 31.3922 54.2661 31.6863C54.9277 31.9656 55.4937 32.3699 55.9642 32.8992C56.4494 33.4285 56.8243 34.0681 57.089 34.8179C57.3536 35.5531 57.486 36.3691 57.486 37.2659ZM55.3467 37.2659C55.3467 35.9721 55.0527 34.9503 54.4645 34.2004C53.8911 33.4359 53.1045 33.0536 52.1048 33.0536C51.105 33.0536 50.311 33.4359 49.7229 34.2004C49.1495 34.9503 48.8628 35.9721 48.8628 37.2659C48.8628 38.5598 49.1495 39.589 49.7229 40.3535C50.311 41.1034 51.105 41.4783 52.1048 41.4783C53.1045 41.4783 53.8911 41.1034 54.4645 40.3535C55.0527 39.589 55.3467 38.5598 55.3467 37.2659Z" fill="white"/>
</svg>
