<svg width="31" height="30" viewBox="0 0 31 30" fill="none" xmlns="http://www.w3.org/2000/svg">
<path d="M15.5 0C23.78 0 30.5 6.72 30.5 15C30.5 23.28 23.78 30 15.5 30C7.22 30 0.5 23.28 0.5 15C0.5 6.72 7.22 0 15.5 0ZM6.5345 20.124C8.7365 23.409 12.0425 25.5 15.74 25.5C19.436 25.5 22.7435 23.4105 24.944 20.124C22.4476 17.7909 19.1569 16.4952 15.74 16.5C12.3226 16.4948 9.03127 17.7905 6.5345 20.124ZM15.5 13.5C16.6935 13.5 17.8381 13.0259 18.682 12.182C19.5259 11.3381 20 10.1935 20 9C20 7.80653 19.5259 6.66193 18.682 5.81802C17.8381 4.97411 16.6935 4.5 15.5 4.5C14.3065 4.5 13.1619 4.97411 12.318 5.81802C11.4741 6.66193 11 7.80653 11 9C11 10.1935 11.4741 11.3381 12.318 12.182C13.1619 13.0259 14.3065 13.5 15.5 13.5Z" fill="white"/>
</svg>
